<svg xmlns="http://www.w3.org/2000/svg" viewBox="0 0 412.23 76.66"><defs><style>.cls-1,.cls-2{fill:#002561;}.cls-2{fill-rule:evenodd;}</style></defs><g id="Layer_2" data-name="Layer 2"><g id="Camada_1" data-name="Camada 1"><path class="cls-1" d="M38.9.93c.53,2.65-11.64,4.24-11.85,2-.21-2,11.42-4.24,11.85-2Zm9.63,1.38c1-1.59,12.27,3,11.63,5.93-1.16,3-13.65-3-11.63-5.93ZM40.06,4.54c3.28-.32,6,1,6.77,2.43,1.59,3.61-3.59,4.35-5.6,4.25-3-.32-5.19-1.7-5.19-3.93,0-1.06,1.38-2.54,4-2.75ZM22.81,4c1.27,1.6-10.47,9.76-11.53,8.27C10,10.69,21.23,2.31,22.81,4Zm5.72,1.91c1.9-.31,4,0,4.76,1.38,1.9,4.14-4.76,7.64-7.62,8-2.43.31-4.65-.22-5.08-1.91-.84-4.25,5.19-6.9,7.94-7.43Zm34.28,4.67c1.59-1.06,7.62,5.19,6.56,6.89-1.38,1.91-8.68-5.2-6.56-6.89Zm-10.9,1.06c7.51-.21,14.5,8,9.52,12.73-4.76,4.56-14.7-3.29-13.22-9.44a4.17,4.17,0,0,1,3.7-3.29ZM38.05,15a5.17,5.17,0,0,1,5,6.37A5,5,0,0,1,38.47,25a5,5,0,1,1-.42-10Zm-27.72.64c2.54,1.38-3,10-5.29,9.12-2.22-1.17,2.75-10.07,5.29-9.12ZM23,17.26c2.22,1.06,3.59,3.82,2.85,7.43s-5.82,9.11-11.53,6.89c-7.93-3,.74-18.14,8.68-14.32ZM73.81,35.93c-4.76,1.37-9.94-14.74-5.5-16.23,5.5-2,9.63,14.53,5.5,16.23ZM45.67,27.44a7,7,0,0,1,7,7.53c-.53,3.4-2.54,6.05-5.82,6.58-4.76.85-9.1-4.35-7.4-9.55a6.36,6.36,0,0,1,6.24-4.56ZM3.24,28C6.73,28,6.1,44.09,2.18,44.09-1.31,44.09-.36,28,3.24,28ZM29.48,30.3C37.1,29.14,38.16,40,31.7,41.44A5.6,5.6,0,0,1,25,34.55a5.3,5.3,0,0,1,4.44-4.25Zm30.68,1.6c3.71-.53,6.67,3.07,5.4,7.74-2.75,7.21-10.69,1.59-8.46-5a4,4,0,0,1,3.06-2.75ZM72.65,50.67c-3.28-1-1.69-13.26,1.8-13.26s2.22,13.26-1.8,13.26ZM17.84,41.86c.74,4-2.43,8-6.24,5.41-1.8-1.16-3.28-4.87-1.8-7.53,2.22-4,7.2-1.8,8,2.12ZM54,49.29a8.22,8.22,0,0,1-6,10.39c-6.14,1.49-12.17-3.18-10.27-9.33,2.12-7.42,13.65-8.17,16.3-1.06ZM25.78,45.05c6.13.31,9.31,9.22,3.38,12.62-4.86,2.75-10.9-3.08-9.2-8.59.95-3.29,3.49-4,5.82-4ZM3.35,46.64c3.17-1.49,7.61,10,5,11.35-3.18.42-7.09-9.44-5-11.35Zm64.86,7.63C67,57.88,62.92,62,59.32,60c-3.81-2.23,0-10,3.17-11.45,4.55-2,6.88,2,5.72,5.72Zm.63,8.38c-1.59-.32,2.75-8.48,4.55-7.85,1.38.53-1.8,7.64-4.55,7.85Zm-45.5,5.94c-3.17,3.92-14-6.05-11.53-9.65,2.65-3.39,14.39,5.19,11.53,9.65Zm12-8.06c4-.53,10.16,2,8.36,6.36-2.22,4.46-11.53,3.61-13.23-.1s1.91-5.94,4.87-6.26Zm18,.85c2.12-.21,3.18.42,3.6,1.91C57.84,67.42,49,71.67,47,68c-1.37-3.28,3.81-6.36,6.24-6.57ZM66.41,65.3c1.48,1.81-9.42,9.23-10.48,7.85s9.31-9.23,10.48-7.85ZM33.61,75.38c-.64,2.12-11.11-.85-10.06-3.5.64-1.59,10.8.85,10.06,3.5Zm15.87-1.7c.53,2-8.68,4.24-9.42,2.12C39.43,74.1,49,71.67,49.48,73.68Z"/><path class="cls-2" d="M108.26,39.39V42h8.85c2.16,12.75-10.85,13.95-15.83,8.86-6.45-6.62-4-22.31,1.32-26.38,6-4.56,13.92.42,14.51,6.4.75-.15,1.92-.34,2.83-.56-1.32-6.24-5.19-10.93-12.82-10.37-16.89,1.26-17.07,34.72-.94,36.37,5.33.54,9-1.05,11.31-3.58,0,.9.05,3,.05,3h3V39.39Zm136.42-16.2a13.57,13.57,0,0,0-10-3c-9.49,1.17-13.46,9.87-12.63,20.72.69,8.89,6.17,16.54,15.83,15.46C251.58,54.82,253.49,31.18,244.68,23.19ZM240,53a10,10,0,0,1-12.43-4.15c-4.33-7.36-2.47-21.64,3.76-25.06a9.42,9.42,0,0,1,4.91-.94,10.16,10.16,0,0,1,5.84,1.88C248.46,29.81,248.75,49.17,240,53Zm-57-7.22c0,5.56-4,8.4-9.95,8.4-5.56,0-9.44-3.5-9.44-8.53V20.81l-3.25.07v24.6s0,11.25,12.69,11.25S186.14,47.31,186.14,46V20.88H183ZM151.07,30.82c0-10.74-9.95-9.94-9.95-9.94H128.56v35.2l3.27.13V40.11H141l8.24,16h3.54l-8.64-16.63A8.55,8.55,0,0,0,151.07,30.82ZM140.89,37.4h-9.13V23.46H141s6.92-.4,6.92,6.92S141.48,37.4,140.89,37.4Zm66.58-16.52h-12.3V56.21h3.14V40h9.62c2.81,0,9.75-.19,9.75-9.74S207.47,20.88,207.47,20.88Zm0,16.81h-9.13V23.46h9.22s6.92-.4,6.92,7.06S208,37.69,207.44,37.69Z"/><path class="cls-1" d="M296.9,24.77q-.51-3.51-3.76-3.51h-4.37q-2.81,0-3.61,3.51l-3.87,17c-.13.54-.4.82-.81.82s-.56-.28-.66-.82l-3.2-17q-.66-3.51-3.56-3.51h-4.42q-3.25,0-3.81,3.76L261,51.81a18.82,18.82,0,0,0-.2,2.54c0,1.46.76,2.18,2.29,2.18s2.4-.69,2.54-2.08l2.08-20.79c.07-.54.31-.81.71-.81s.56.27.67.81l4,19.27c.34,1.72,2.08,2.59,5.23,2.59,2.72,0,4.25-.9,4.63-2.7l4.07-19.16q.15-.81.66-.81c.4,0,.64.27.71.81l2,20.23a2.17,2.17,0,0,0,.84,1.5,2.58,2.58,0,0,0,1.65.58h5.85a2,2,0,0,0,2.18-2.23,18.09,18.09,0,0,0-.15-2.49Z"/><path class="cls-1" d="M323.43,24.11a6.2,6.2,0,0,0-1.42-2.5,5.83,5.83,0,0,0-3.81-1.06c-3.19,0-5.19,1.18-6,3.56l-9.3,27.7a8.28,8.28,0,0,0-.51,2.54c0,1.46.84,2.18,2.54,2.18a2.75,2.75,0,0,0,2.95-2.08l2.33-8a2.4,2.4,0,0,1,2.5-1.88h5a2.19,2.19,0,0,1,2.23,1.88l2,7.47A2.45,2.45,0,0,0,324.5,56h6.61c1.42,0,2.13-.82,2.13-2.49a6.91,6.91,0,0,0-.35-2.23Zm-6.3,17.07h-3.41c-1.12,0-1.67-.5-1.67-1.52a5.58,5.58,0,0,1,.25-1.32l1.93-6.92c.27-.91.7-1.37,1.27-1.37.78,0,1.27.46,1.48,1.37l1.57,6.71a7.46,7.46,0,0,1,.25,1.53C318.8,40.68,318.25,41.18,317.13,41.18Z"/><path class="cls-1" d="M348.08,31.83a8.87,8.87,0,0,1-1.27-3.66,3.09,3.09,0,0,1,.74-2.11,2.25,2.25,0,0,1,1.75-.84h4.17c1.22,0,1.83-.5,1.83-1.52,0-1.36-1.08-2.22-3.25-2.59a33.92,33.92,0,0,0-4.73-.21q-11.79,0-11.79,8a13.61,13.61,0,0,0,1.73,6.25l5.89,11.39a7.11,7.11,0,0,1,.92,3.15c0,1.56-1,2.34-2.9,2.34H336a1.56,1.56,0,0,0-1.2.53,2,2,0,0,0-.48,1.35,1.74,1.74,0,0,0,1.22,1.93q1.83.51,9.15.51c3.45,0,6-.49,7.72-1.47,2-1.16,3-3.12,3-5.9A17.33,17.33,0,0,0,353,41.13Z"/><path class="cls-1" d="M372,31.83a8.87,8.87,0,0,1-1.27-3.66,3.09,3.09,0,0,1,.74-2.11,2.25,2.25,0,0,1,1.75-.84h4.17c1.22,0,1.83-.5,1.83-1.52,0-1.36-1.08-2.22-3.25-2.59a33.92,33.92,0,0,0-4.73-.21q-11.79,0-11.79,8a13.61,13.61,0,0,0,1.73,6.25L367,46.52a7.11,7.11,0,0,1,.92,3.15c0,1.56-1,2.34-2.9,2.34h-5.19a1.56,1.56,0,0,0-1.19.53,2,2,0,0,0-.48,1.35,1.74,1.74,0,0,0,1.22,1.93q1.83.51,9.15.51c3.45,0,6-.49,7.72-1.47,2-1.16,3-3.12,3-5.9a17.33,17.33,0,0,0-2.39-7.83Z"/><path class="cls-1" d="M411.87,51.25l-9.45-27.14a6.32,6.32,0,0,0-1.42-2.5,5.83,5.83,0,0,0-3.81-1.06c-3.19,0-5.19,1.18-6,3.56l-9.3,27.7a8,8,0,0,0-.51,2.54c0,1.46.84,2.18,2.54,2.18a2.74,2.74,0,0,0,2.94-2.08l2.34-8a2.4,2.4,0,0,1,2.49-1.88h5a2.2,2.2,0,0,1,2.24,1.88l2,7.47A2.45,2.45,0,0,0,403.49,56h6.61c1.42,0,2.13-.82,2.13-2.49A6.64,6.64,0,0,0,411.87,51.25ZM396.12,41.18h-3.41c-1.12,0-1.68-.5-1.68-1.52a5.74,5.74,0,0,1,.26-1.32l1.93-6.92c.27-.91.69-1.37,1.27-1.37.78,0,1.27.46,1.47,1.37l1.58,6.71a7.46,7.46,0,0,1,.25,1.53C397.79,40.68,397.23,41.18,396.12,41.18Z"/></g></g></svg>